<svg width="16" height="16" viewBox="0 0 16 16" fill="none" xmlns="http://www.w3.org/2000/svg">
<g id="Linear / Time / Calendar Minimalistic">
<g clip-path="url(#clip0_3012_177313)">
<path id="Vector" d="M1.33301 7.99935C1.33301 5.48519 1.33301 4.22811 2.11406 3.44706C2.89511 2.66602 4.15218 2.66602 6.66634 2.66602H9.33301C11.8472 2.66602 13.1042 2.66602 13.8853 3.44706C14.6663 4.22811 14.6663 5.48519 14.6663 7.99935V9.33268C14.6663 11.8468 14.6663 13.1039 13.8853 13.885C13.1042 14.666 11.8472 14.666 9.33301 14.666H6.66634C4.15218 14.666 2.89511 14.666 2.11406 13.885C1.33301 13.1039 1.33301 11.8468 1.33301 9.33268V7.99935Z" stroke="#344054" stroke-width="1.5"/>
<path id="Vector_2" d="M4.66699 2.66602V1.66602" stroke="#344054" stroke-width="1.5" stroke-linecap="round"/>
<path id="Vector_3" d="M11.333 2.66602V1.66602" stroke="#344054" stroke-width="1.5" stroke-linecap="round"/>
<path id="Vector_4" d="M1.66699 6H14.3337" stroke="#344054" stroke-width="1.5" stroke-linecap="round"/>
</g>
</g>
<defs>
<clipPath id="clip0_3012_177313">
<rect width="16" height="16" rx="3.33333" fill="white"/>
</clipPath>
</defs>
</svg>
