<svg xmlns="http://www.w3.org/2000/svg" width="20" height="20" viewBox="0 0 20 20" fill="none">
  <path d="M16.7353 2.51463L16.7614 3.26417L16.7353 2.51463ZM13.7503 2.90604L13.5352 2.18755L13.7503 2.90604ZM11.3952 4.00213L11.0195 3.353V3.353L11.3952 4.00213ZM3.31899 2.56224L3.27299 3.31083L3.31899 2.56224ZM5.83366 2.90604L6.02502 2.18086L5.83366 2.90604ZM8.56887 4.06272L8.21828 4.72573L8.56887 4.06272ZM11.3566 16.7242L11.7094 17.386L11.3566 16.7242ZM14.167 15.5276L13.9756 14.8025L14.167 15.5276ZM16.6546 15.1855L16.7014 15.9341L16.6546 15.1855ZM8.64401 16.7242L8.29121 17.386H8.29121L8.64401 16.7242ZM5.83366 15.5276L6.02502 14.8025L5.83366 15.5276ZM3.34604 15.1855L3.29922 15.9341H3.29922L3.34604 15.1855ZM2.41699 13.4528V4.16467H0.916992V13.4528H2.41699ZM19.0837 13.4528V4.11083H17.5837V13.4528H19.0837ZM16.7092 1.76508C15.759 1.79818 14.5054 1.8971 13.5352 2.18755L13.9654 3.62453C14.7401 3.39262 15.8307 3.29659 16.7614 3.26417L16.7092 1.76508ZM13.5352 2.18755C12.6915 2.44015 11.7484 2.93115 11.0195 3.353L11.7709 4.65126C12.4777 4.24216 13.2965 3.8248 13.9654 3.62453L13.5352 2.18755ZM3.27299 3.31083C4.07624 3.3602 4.97784 3.45588 5.6423 3.63122L6.02502 2.18086C5.21196 1.96631 4.18903 1.8643 3.365 1.81366L3.27299 3.31083ZM5.6423 3.63122C6.42955 3.83896 7.40583 4.29613 8.21828 4.72573L8.91946 3.3997C8.08834 2.96023 6.98645 2.43457 6.02502 2.18086L5.6423 3.63122ZM11.7094 17.386C12.5339 16.9466 13.546 16.4672 14.3584 16.2528L13.9756 14.8025C12.9855 15.0637 11.8452 15.6139 11.0038 16.0624L11.7094 17.386ZM14.3584 16.2528C15.0152 16.0795 15.9042 15.9839 16.7014 15.9341L16.6078 14.437C15.7893 14.4882 14.78 14.5902 13.9756 14.8025L14.3584 16.2528ZM8.9968 16.0624C8.15544 15.6139 7.01512 15.0637 6.02502 14.8025L5.6423 16.2528C6.45462 16.4672 7.46677 16.9466 8.29121 17.386L8.9968 16.0624ZM6.02502 14.8025C5.2207 14.5902 4.21137 14.4882 3.39286 14.437L3.29922 15.9341C4.09641 15.9839 4.98544 16.0795 5.6423 16.2528L6.02502 14.8025ZM17.5837 13.4528C17.5837 13.9534 17.1664 14.402 16.6078 14.437L16.7014 15.9341C17.9909 15.8534 19.0837 14.8039 19.0837 13.4528H17.5837ZM19.0837 4.11083C19.0837 2.82627 18.0594 1.71805 16.7092 1.76508L16.7614 3.26417C17.1976 3.24898 17.5837 3.60798 17.5837 4.11083H19.0837ZM0.916992 13.4528C0.916992 14.8039 2.00977 15.8534 3.29922 15.9341L3.39286 14.437C2.83429 14.402 2.41699 13.9534 2.41699 13.4528H0.916992ZM11.0038 16.0624C10.3804 16.3947 9.62029 16.3947 8.9968 16.0624L8.29121 17.386C9.35571 17.9535 10.6449 17.9535 11.7094 17.386L11.0038 16.0624ZM11.0195 3.353C10.3745 3.72631 9.57152 3.7445 8.91946 3.3997L8.21828 4.72573C9.33376 5.31557 10.6854 5.27947 11.7709 4.65126L11.0195 3.353ZM2.41699 4.16467C2.41699 3.65052 2.82171 3.2831 3.27299 3.31083L3.365 1.81366C1.98945 1.72912 0.916992 2.84854 0.916992 4.16467H2.41699Z" fill="#667085"/>
  <path d="M10 4.87793V17.4995" stroke="#667085" stroke-width="1.5"/>
  <path d="M4.16699 7.5L7.50033 8.33333" stroke="#667085" stroke-width="1.5" stroke-linecap="round"/>
  <path d="M15.833 7.5L12.4997 8.33333" stroke="#667085" stroke-width="1.5" stroke-linecap="round"/>
  <path d="M4.16699 10.833L7.50033 11.6663" stroke="#667085" stroke-width="1.5" stroke-linecap="round"/>
  <path d="M15.833 10.833L12.4997 11.6663" stroke="#667085" stroke-width="1.5" stroke-linecap="round"/>
</svg>