<svg xmlns="http://www.w3.org/2000/svg" width="20" height="20" viewBox="0 0 20 20" fill="none">
  <path d="M3.33301 6.66699C3.33301 4.30997 3.33301 3.13146 4.06524 2.39923C4.79747 1.66699 5.97599 1.66699 8.33301 1.66699H11.6663C14.0234 1.66699 15.2019 1.66699 15.9341 2.39923C16.6663 3.13146 16.6663 4.30997 16.6663 6.66699V13.3337C16.6663 15.6907 16.6663 16.8692 15.9341 17.6014C15.2019 18.3337 14.0234 18.3337 11.6663 18.3337H8.33301C5.97599 18.3337 4.79747 18.3337 4.06524 17.6014C3.33301 16.8692 3.33301 15.6907 3.33301 13.3337V6.66699Z" stroke="#667085" stroke-width="1.5"/>
  <path d="M16.5812 13.333H6.58116C5.80618 13.333 5.41869 13.333 5.10077 13.4182C4.23804 13.6494 3.56418 14.3232 3.33301 15.186" stroke="#667085" stroke-width="1.5"/>
  <path d="M6.66699 5.83301H13.3337" stroke="#667085" stroke-width="1.5" stroke-linecap="round"/>
  <path d="M6.66699 8.75H10.8337" stroke="#667085" stroke-width="1.5" stroke-linecap="round"/>
</svg>