<svg width="20" height="20" viewBox="0 0 20 20" fill="none" xmlns="http://www.w3.org/2000/svg">
<g id="Linear / Essentional, UI / Home 3" clip-path="url(#clip0_3931_104401)">
<path id="Vector" d="M2.88689 17.1133C4.10728 18.3337 6.07147 18.3337 9.99984 18.3337C13.9282 18.3337 15.8924 18.3337 17.1128 17.1133C18.3332 15.8929 18.3332 13.9287 18.3332 10.0003C18.3332 6.07195 18.3332 4.10777 17.1128 2.88738M2.88689 17.1133C1.6665 15.8929 1.6665 13.9287 1.6665 10.0003C1.6665 6.07195 1.6665 4.10777 2.88689 2.88738C4.10728 1.66699 6.07147 1.66699 9.99984 1.66699C13.9282 1.66699 15.8924 1.66699 17.1128 2.88738M2.88689 17.1133L17.1128 2.88738" stroke="#667085" stroke-width="1.5"/>
<path id="Vector_2" d="M15 14.167H10.8333" stroke="#667085" stroke-width="1.5" stroke-linecap="round"/>
<path id="Vector_3" d="M8.75016 6.66636H6.66683M6.66683 6.66636L4.5835 6.66636M6.66683 6.66636L6.66683 4.58301M6.66683 6.66636L6.66683 8.74967" stroke="#667085" stroke-width="1.5" stroke-linecap="round"/>
</g>
<defs>
<clipPath id="clip0_3931_104401">
<rect width="20" height="20" fill="white"/>
</clipPath>
</defs>
</svg>
