<svg width="20" height="21" viewBox="0 0 20 21" fill="none" xmlns="http://www.w3.org/2000/svg">
<g id="Linear / Building, Infrastructure / Buildings 2">
<path id="Vector" d="M18.3333 18.833L1.66663 18.833" stroke="#667085" stroke-width="1.5" stroke-linecap="round"/>
<path id="Vector_2" d="M14.1667 18.8337V5.50033C14.1667 3.92898 14.1667 3.1433 13.6786 2.65515C13.1904 2.16699 12.4047 2.16699 10.8334 2.16699H9.16671C7.59536 2.16699 6.80968 2.16699 6.32153 2.65515C5.83337 3.1433 5.83337 3.92898 5.83337 5.50033V18.8337" stroke="#667085" stroke-width="1.5"/>
<path id="Vector_3" d="M17.5 18.8337V10.0837C17.5 8.91327 17.5 8.32808 17.2192 7.90771C17.0976 7.72572 16.9413 7.56947 16.7593 7.44788C16.339 7.16699 15.7538 7.16699 14.5834 7.16699" stroke="#667085" stroke-width="1.5"/>
<path id="Vector_4" d="M2.5 18.8337V10.0837C2.5 8.91327 2.5 8.32808 2.78088 7.90771C2.90248 7.72572 3.05873 7.56947 3.24072 7.44788C3.66109 7.16699 4.24628 7.16699 5.41667 7.16699" stroke="#667085" stroke-width="1.5"/>
<path id="Vector_5" d="M10 18.833V16.333" stroke="#667085" stroke-width="1.5" stroke-linecap="round"/>
<path id="Vector_6" d="M8.33337 4.66699H11.6667" stroke="#667085" stroke-width="1.5" stroke-linecap="round"/>
<path id="Vector_7" d="M8.33337 7.16699H11.6667" stroke="#667085" stroke-width="1.5" stroke-linecap="round"/>
<path id="Vector_8" d="M8.33337 9.66699H11.6667" stroke="#667085" stroke-width="1.5" stroke-linecap="round"/>
<path id="Vector_9" d="M8.33337 12.167H11.6667" stroke="#667085" stroke-width="1.5" stroke-linecap="round"/>
</g>
</svg>
