<svg xmlns="http://www.w3.org/2000/svg" width="20" height="20" viewBox="0 0 20 20" fill="none">
<g clip-path="url(#clip0_1690_28293)">
<path d="M1.66699 10.1693C1.66699 8.26226 1.66699 7.30875 2.09966 6.5183C2.53233 5.72786 3.32278 5.23728 4.90369 4.25612L6.57035 3.22174C8.24148 2.18459 9.07705 1.66602 10.0003 1.66602C10.9236 1.66602 11.7592 2.18459 13.4303 3.22174L15.097 4.25612C16.6779 5.23728 17.4683 5.72786 17.901 6.5183C18.3337 7.30875 18.3337 8.26226 18.3337 10.1693V11.4368C18.3337 14.6876 18.3337 16.3129 17.3573 17.3228C16.381 18.3327 14.8097 18.3327 11.667 18.3327H8.33366C5.19096 18.3327 3.61961 18.3327 2.6433 17.3228C1.66699 16.3129 1.66699 14.6876 1.66699 11.4368V10.1693Z" stroke="#667085" stroke-width="1.5"/>
<path d="M12.5 15H7.5" stroke="#667085" stroke-width="1.5" stroke-linecap="round"/>
</g>
<defs>
<clipPath id="clip0_1690_28293">
<rect width="20" height="20" fill="white"/>
</clipPath>
</defs>
</svg>