<svg width="20" height="20" viewBox="0 0 20 20" fill="none" xmlns="http://www.w3.org/2000/svg">
<g id="Linear / Essentional, UI / Home 3">
<g id="Vector">
<mask id="path-1-inside-1_3931_107967" fill="white">
<path d="M8.16411 4.06389C7.41471 4.06389 6.696 4.36159 6.1661 4.8915C5.63619 5.4214 5.3385 6.14011 5.3385 6.88951C5.3385 7.63891 5.63619 8.35761 6.1661 8.88752C6.696 9.41743 7.41471 9.71512 8.16411 9.71512C8.91351 9.71512 9.63221 9.41743 10.1621 8.88752C10.692 8.35761 10.9897 7.63891 10.9897 6.88951C10.9897 6.14011 10.692 5.4214 10.1621 4.8915C9.63221 4.36159 8.91351 4.06389 8.16411 4.06389ZM6.7513 6.88951C6.7513 6.51481 6.90015 6.15546 7.1651 5.8905C7.43006 5.62555 7.78941 5.4767 8.16411 5.4767C8.53881 5.4767 8.89816 5.62555 9.16311 5.8905C9.42807 6.15546 9.57692 6.51481 9.57692 6.88951C9.57692 7.26421 9.42807 7.62356 9.16311 7.88851C8.89816 8.15347 8.53881 8.30232 8.16411 8.30232C7.78941 8.30232 7.43006 8.15347 7.1651 7.88851C6.90015 7.62356 6.7513 7.26421 6.7513 6.88951ZM0.158203 3.35749C0.158203 2.79544 0.381476 2.25641 0.778905 1.85898C1.17633 1.46155 1.71536 1.23828 2.27741 1.23828H14.0508C14.3291 1.23828 14.6047 1.2931 14.8618 1.3996C15.1189 1.5061 15.3525 1.6622 15.5493 1.85898C15.7461 2.05577 15.9022 2.28939 16.0087 2.5465C16.1152 2.80362 16.17 3.07919 16.17 3.35749V7.83138H14.7572V5.4767H14.0508C13.4888 5.4767 12.9497 5.25343 12.5523 4.856C12.1549 4.45857 11.9316 3.91954 11.9316 3.35749V2.65109H4.39662V3.35749C4.39662 3.91954 4.17335 4.45857 3.77592 4.856C3.37849 5.25343 2.83946 5.4767 2.27741 5.4767H1.57101V8.30232H2.27741C2.83946 8.30232 3.37849 8.52559 3.77592 8.92302C4.17335 9.32045 4.39662 9.85948 4.39662 10.4215V11.1279H11.4607V12.5407H2.27741C1.71536 12.5407 1.17633 12.3175 0.778905 11.92C0.381476 11.5226 0.158203 10.9836 0.158203 10.4215V3.35749ZM2.27741 2.65109C2.09006 2.65109 1.91039 2.72551 1.77791 2.85799C1.64543 2.99047 1.57101 3.17014 1.57101 3.35749V4.06389H2.27741C2.46476 4.06389 2.64444 3.98947 2.77692 3.85699C2.90939 3.72452 2.98382 3.54484 2.98382 3.35749V2.65109H2.27741ZM14.7572 4.06389V3.35749C14.7572 3.17014 14.6828 2.99047 14.5503 2.85799C14.4178 2.72551 14.2382 2.65109 14.0508 2.65109H13.3444V3.35749C13.3444 3.74743 13.6609 4.06389 14.0508 4.06389H14.7572ZM1.57101 10.4215C1.57101 10.8115 1.88748 11.1279 2.27741 11.1279H2.98382V10.4215C2.98382 10.2342 2.90939 10.0545 2.77692 9.92202C2.64444 9.78955 2.46476 9.71512 2.27741 9.71512H1.57101V10.4215ZM2.41964 13.9535H11.4607V15.3663H4.86756C4.37141 15.3665 3.88397 15.236 3.45426 14.988C3.02455 14.74 2.66771 14.3832 2.41964 13.9535ZM18.9956 7.83138V5.94764C18.9958 5.45149 18.8653 4.96405 18.6173 4.53434C18.3693 4.10462 18.0125 3.74779 17.5828 3.49971V7.83138H18.9956ZM13.8153 8.77325C13.4406 8.77325 13.0813 8.9221 12.8163 9.18705C12.5514 9.45201 12.4025 9.81136 12.4025 10.1861V17.721C12.4025 18.0957 12.5514 18.4551 12.8163 18.72C13.0813 18.985 13.4406 19.1338 13.8153 19.1338H18.5247C18.8994 19.1338 19.2587 18.985 19.5237 18.72C19.7887 18.4551 19.9375 18.0957 19.9375 17.721V10.1861C19.9375 9.81136 19.7887 9.45201 19.5237 9.18705C19.2587 8.9221 18.8994 8.77325 18.5247 8.77325H13.8153ZM14.2863 13.0117H15.2281C15.353 13.0117 15.4728 13.0613 15.5611 13.1496C15.6495 13.2379 15.6991 13.3577 15.6991 13.4826C15.6991 13.6075 15.6495 13.7273 15.5611 13.8156C15.4728 13.9039 15.353 13.9535 15.2281 13.9535H14.2863C14.1614 13.9535 14.0416 13.9039 13.9533 13.8156C13.865 13.7273 13.8153 13.6075 13.8153 13.4826C13.8153 13.3577 13.865 13.2379 13.9533 13.1496C14.0416 13.0613 14.1614 13.0117 14.2863 13.0117ZM17.1119 13.0117H18.0538C18.1787 13.0117 18.2984 13.0613 18.3868 13.1496C18.4751 13.2379 18.5247 13.3577 18.5247 13.4826C18.5247 13.6075 18.4751 13.7273 18.3868 13.8156C18.2984 13.9039 18.1787 13.9535 18.0538 13.9535H17.1119C16.987 13.9535 16.8672 13.9039 16.7789 13.8156C16.6906 13.7273 16.641 13.6075 16.641 13.4826C16.641 13.3577 16.6906 13.2379 16.7789 13.1496C16.8672 13.0613 16.987 13.0117 17.1119 13.0117ZM14.2863 14.8954H15.2281C15.353 14.8954 15.4728 14.945 15.5611 15.0333C15.6495 15.1217 15.6991 15.2414 15.6991 15.3663C15.6991 15.4912 15.6495 15.611 15.5611 15.6994C15.4728 15.7877 15.353 15.8373 15.2281 15.8373H14.2863C14.1614 15.8373 14.0416 15.7877 13.9533 15.6994C13.865 15.611 13.8153 15.4912 13.8153 15.3663C13.8153 15.2414 13.865 15.1217 13.9533 15.0333C14.0416 14.945 14.1614 14.8954 14.2863 14.8954ZM17.1119 14.8954H18.0538C18.1787 14.8954 18.2984 14.945 18.3868 15.0333C18.4751 15.1217 18.5247 15.2414 18.5247 15.3663C18.5247 15.4912 18.4751 15.611 18.3868 15.6994C18.2984 15.7877 18.1787 15.8373 18.0538 15.8373H17.1119C16.987 15.8373 16.8672 15.7877 16.7789 15.6994C16.6906 15.611 16.641 15.4912 16.641 15.3663C16.641 15.2414 16.6906 15.1217 16.7789 15.0333C16.8672 14.945 16.987 14.8954 17.1119 14.8954ZM14.2863 16.7792H15.2281C15.353 16.7792 15.4728 16.8288 15.5611 16.9171C15.6495 17.0054 15.6991 17.1252 15.6991 17.2501C15.6991 17.375 15.6495 17.4948 15.5611 17.5831C15.4728 17.6714 15.353 17.721 15.2281 17.721H14.2863C14.1614 17.721 14.0416 17.6714 13.9533 17.5831C13.865 17.4948 13.8153 17.375 13.8153 17.2501C13.8153 17.1252 13.865 17.0054 13.9533 16.9171C14.0416 16.8288 14.1614 16.7792 14.2863 16.7792ZM17.1119 16.7792H18.0538C18.1787 16.7792 18.2984 16.8288 18.3868 16.9171C18.4751 17.0054 18.5247 17.1252 18.5247 17.2501C18.5247 17.375 18.4751 17.4948 18.3868 17.5831C18.2984 17.6714 18.1787 17.721 18.0538 17.721H17.1119C16.987 17.721 16.8672 17.6714 16.7789 17.5831C16.6906 17.4948 16.641 17.375 16.641 17.2501C16.641 17.1252 16.6906 17.0054 16.7789 16.9171C16.8672 16.8288 16.987 16.7792 17.1119 16.7792ZM13.8153 10.657C13.8153 10.5321 13.865 10.4123 13.9533 10.324C14.0416 10.2357 14.1614 10.1861 14.2863 10.1861H18.0538C18.1787 10.1861 18.2984 10.2357 18.3868 10.324C18.4751 10.4123 18.5247 10.5321 18.5247 10.657V11.5989C18.5247 11.7238 18.4751 11.8435 18.3868 11.9319C18.2984 12.0202 18.1787 12.0698 18.0538 12.0698H14.2863C14.1614 12.0698 14.0416 12.0202 13.9533 11.9319C13.865 11.8435 13.8153 11.7238 13.8153 11.5989V10.657Z"/>
</mask>
<path d="M8.16411 4.06389C7.41471 4.06389 6.696 4.36159 6.1661 4.8915C5.63619 5.4214 5.3385 6.14011 5.3385 6.88951C5.3385 7.63891 5.63619 8.35761 6.1661 8.88752C6.696 9.41743 7.41471 9.71512 8.16411 9.71512C8.91351 9.71512 9.63221 9.41743 10.1621 8.88752C10.692 8.35761 10.9897 7.63891 10.9897 6.88951C10.9897 6.14011 10.692 5.4214 10.1621 4.8915C9.63221 4.36159 8.91351 4.06389 8.16411 4.06389ZM6.7513 6.88951C6.7513 6.51481 6.90015 6.15546 7.1651 5.8905C7.43006 5.62555 7.78941 5.4767 8.16411 5.4767C8.53881 5.4767 8.89816 5.62555 9.16311 5.8905C9.42807 6.15546 9.57692 6.51481 9.57692 6.88951C9.57692 7.26421 9.42807 7.62356 9.16311 7.88851C8.89816 8.15347 8.53881 8.30232 8.16411 8.30232C7.78941 8.30232 7.43006 8.15347 7.1651 7.88851C6.90015 7.62356 6.7513 7.26421 6.7513 6.88951ZM0.158203 3.35749C0.158203 2.79544 0.381476 2.25641 0.778905 1.85898C1.17633 1.46155 1.71536 1.23828 2.27741 1.23828H14.0508C14.3291 1.23828 14.6047 1.2931 14.8618 1.3996C15.1189 1.5061 15.3525 1.6622 15.5493 1.85898C15.7461 2.05577 15.9022 2.28939 16.0087 2.5465C16.1152 2.80362 16.17 3.07919 16.17 3.35749V7.83138H14.7572V5.4767H14.0508C13.4888 5.4767 12.9497 5.25343 12.5523 4.856C12.1549 4.45857 11.9316 3.91954 11.9316 3.35749V2.65109H4.39662V3.35749C4.39662 3.91954 4.17335 4.45857 3.77592 4.856C3.37849 5.25343 2.83946 5.4767 2.27741 5.4767H1.57101V8.30232H2.27741C2.83946 8.30232 3.37849 8.52559 3.77592 8.92302C4.17335 9.32045 4.39662 9.85948 4.39662 10.4215V11.1279H11.4607V12.5407H2.27741C1.71536 12.5407 1.17633 12.3175 0.778905 11.92C0.381476 11.5226 0.158203 10.9836 0.158203 10.4215V3.35749ZM2.27741 2.65109C2.09006 2.65109 1.91039 2.72551 1.77791 2.85799C1.64543 2.99047 1.57101 3.17014 1.57101 3.35749V4.06389H2.27741C2.46476 4.06389 2.64444 3.98947 2.77692 3.85699C2.90939 3.72452 2.98382 3.54484 2.98382 3.35749V2.65109H2.27741ZM14.7572 4.06389V3.35749C14.7572 3.17014 14.6828 2.99047 14.5503 2.85799C14.4178 2.72551 14.2382 2.65109 14.0508 2.65109H13.3444V3.35749C13.3444 3.74743 13.6609 4.06389 14.0508 4.06389H14.7572ZM1.57101 10.4215C1.57101 10.8115 1.88748 11.1279 2.27741 11.1279H2.98382V10.4215C2.98382 10.2342 2.90939 10.0545 2.77692 9.92202C2.64444 9.78955 2.46476 9.71512 2.27741 9.71512H1.57101V10.4215ZM2.41964 13.9535H11.4607V15.3663H4.86756C4.37141 15.3665 3.88397 15.236 3.45426 14.988C3.02455 14.74 2.66771 14.3832 2.41964 13.9535ZM18.9956 7.83138V5.94764C18.9958 5.45149 18.8653 4.96405 18.6173 4.53434C18.3693 4.10462 18.0125 3.74779 17.5828 3.49971V7.83138H18.9956ZM13.8153 8.77325C13.4406 8.77325 13.0813 8.9221 12.8163 9.18705C12.5514 9.45201 12.4025 9.81136 12.4025 10.1861V17.721C12.4025 18.0957 12.5514 18.4551 12.8163 18.72C13.0813 18.985 13.4406 19.1338 13.8153 19.1338H18.5247C18.8994 19.1338 19.2587 18.985 19.5237 18.72C19.7887 18.4551 19.9375 18.0957 19.9375 17.721V10.1861C19.9375 9.81136 19.7887 9.45201 19.5237 9.18705C19.2587 8.9221 18.8994 8.77325 18.5247 8.77325H13.8153ZM14.2863 13.0117H15.2281C15.353 13.0117 15.4728 13.0613 15.5611 13.1496C15.6495 13.2379 15.6991 13.3577 15.6991 13.4826C15.6991 13.6075 15.6495 13.7273 15.5611 13.8156C15.4728 13.9039 15.353 13.9535 15.2281 13.9535H14.2863C14.1614 13.9535 14.0416 13.9039 13.9533 13.8156C13.865 13.7273 13.8153 13.6075 13.8153 13.4826C13.8153 13.3577 13.865 13.2379 13.9533 13.1496C14.0416 13.0613 14.1614 13.0117 14.2863 13.0117ZM17.1119 13.0117H18.0538C18.1787 13.0117 18.2984 13.0613 18.3868 13.1496C18.4751 13.2379 18.5247 13.3577 18.5247 13.4826C18.5247 13.6075 18.4751 13.7273 18.3868 13.8156C18.2984 13.9039 18.1787 13.9535 18.0538 13.9535H17.1119C16.987 13.9535 16.8672 13.9039 16.7789 13.8156C16.6906 13.7273 16.641 13.6075 16.641 13.4826C16.641 13.3577 16.6906 13.2379 16.7789 13.1496C16.8672 13.0613 16.987 13.0117 17.1119 13.0117ZM14.2863 14.8954H15.2281C15.353 14.8954 15.4728 14.945 15.5611 15.0333C15.6495 15.1217 15.6991 15.2414 15.6991 15.3663C15.6991 15.4912 15.6495 15.611 15.5611 15.6994C15.4728 15.7877 15.353 15.8373 15.2281 15.8373H14.2863C14.1614 15.8373 14.0416 15.7877 13.9533 15.6994C13.865 15.611 13.8153 15.4912 13.8153 15.3663C13.8153 15.2414 13.865 15.1217 13.9533 15.0333C14.0416 14.945 14.1614 14.8954 14.2863 14.8954ZM17.1119 14.8954H18.0538C18.1787 14.8954 18.2984 14.945 18.3868 15.0333C18.4751 15.1217 18.5247 15.2414 18.5247 15.3663C18.5247 15.4912 18.4751 15.611 18.3868 15.6994C18.2984 15.7877 18.1787 15.8373 18.0538 15.8373H17.1119C16.987 15.8373 16.8672 15.7877 16.7789 15.6994C16.6906 15.611 16.641 15.4912 16.641 15.3663C16.641 15.2414 16.6906 15.1217 16.7789 15.0333C16.8672 14.945 16.987 14.8954 17.1119 14.8954ZM14.2863 16.7792H15.2281C15.353 16.7792 15.4728 16.8288 15.5611 16.9171C15.6495 17.0054 15.6991 17.1252 15.6991 17.2501C15.6991 17.375 15.6495 17.4948 15.5611 17.5831C15.4728 17.6714 15.353 17.721 15.2281 17.721H14.2863C14.1614 17.721 14.0416 17.6714 13.9533 17.5831C13.865 17.4948 13.8153 17.375 13.8153 17.2501C13.8153 17.1252 13.865 17.0054 13.9533 16.9171C14.0416 16.8288 14.1614 16.7792 14.2863 16.7792ZM17.1119 16.7792H18.0538C18.1787 16.7792 18.2984 16.8288 18.3868 16.9171C18.4751 17.0054 18.5247 17.1252 18.5247 17.2501C18.5247 17.375 18.4751 17.4948 18.3868 17.5831C18.2984 17.6714 18.1787 17.721 18.0538 17.721H17.1119C16.987 17.721 16.8672 17.6714 16.7789 17.5831C16.6906 17.4948 16.641 17.375 16.641 17.2501C16.641 17.1252 16.6906 17.0054 16.7789 16.9171C16.8672 16.8288 16.987 16.7792 17.1119 16.7792ZM13.8153 10.657C13.8153 10.5321 13.865 10.4123 13.9533 10.324C14.0416 10.2357 14.1614 10.1861 14.2863 10.1861H18.0538C18.1787 10.1861 18.2984 10.2357 18.3868 10.324C18.4751 10.4123 18.5247 10.5321 18.5247 10.657V11.5989C18.5247 11.7238 18.4751 11.8435 18.3868 11.9319C18.2984 12.0202 18.1787 12.0698 18.0538 12.0698H14.2863C14.1614 12.0698 14.0416 12.0202 13.9533 11.9319C13.865 11.8435 13.8153 11.7238 13.8153 11.5989V10.657Z" fill="#667085" stroke="#667085" stroke-width="3" mask="url(#path-1-inside-1_3931_107967)"/>
</g>
</g>
</svg>
