<svg xmlns="http://www.w3.org/2000/svg" width="20" height="20" viewBox="0 0 20 20" fill="none">
  <path d="M3.06683 9.44444H2.31683H3.06683ZM3.06684 10.8333L2.53859 11.3657C2.831 11.6559 3.30267 11.6559 3.59508 11.3657L3.06684 10.8333ZM4.99492 9.97685C5.28896 9.68511 5.29083 9.21024 4.99909 8.9162C4.70735 8.62216 4.23248 8.6203 3.93843 8.91204L4.99492 9.97685ZM2.19524 8.91204C1.90119 8.6203 1.42632 8.62216 1.13458 8.9162C0.842843 9.21024 0.844708 9.68511 1.13875 9.97685L2.19524 8.91204ZM15.4068 6.22612C15.6237 6.57899 16.0856 6.68918 16.4385 6.47225C16.7914 6.25532 16.9016 5.79341 16.6846 5.44054L15.4068 6.22612ZM10.066 1.75C5.79184 1.75 2.31683 5.18938 2.31683 9.44444H3.81683C3.81683 6.02889 6.60914 3.25 10.066 3.25V1.75ZM2.31683 9.44444L2.31684 10.8333H3.81684L3.81683 9.44444L2.31683 9.44444ZM3.59508 11.3657L4.99492 9.97685L3.93843 8.91204L2.53859 10.3009L3.59508 11.3657ZM3.59508 10.3009L2.19524 8.91204L1.13875 9.97685L2.53859 11.3657L3.59508 10.3009ZM16.6846 5.44054C15.324 3.22738 12.868 1.75 10.066 1.75V3.25C12.3291 3.25 14.3097 4.44155 15.4068 6.22612L16.6846 5.44054Z" fill="#667085"/>
  <path d="M16.9279 9.16602L17.4551 8.6326C17.163 8.34382 16.6929 8.34382 16.4007 8.6326L16.9279 9.16602ZM14.9955 10.0215C14.7009 10.3127 14.6981 10.7875 14.9893 11.0821C15.2805 11.3767 15.7554 11.3795 16.05 11.0883L14.9955 10.0215ZM17.8059 11.0883C18.1005 11.3795 18.5754 11.3767 18.8665 11.0821C19.1577 10.7875 19.1549 10.3127 18.8603 10.0215L17.8059 11.0883ZM4.53766 13.7721C4.32013 13.4196 3.85803 13.3102 3.50554 13.5278C3.15304 13.7453 3.04363 14.2074 3.26117 14.5599L4.53766 13.7721ZM9.90195 18.2493C14.1882 18.2493 17.6779 14.8127 17.6779 10.5549H16.1779C16.1779 13.9678 13.3764 16.7493 9.90195 16.7493V18.2493ZM17.6779 10.5549V9.16602H16.1779V10.5549H17.6779ZM16.4007 8.6326L14.9955 10.0215L16.05 11.0883L17.4551 9.69943L16.4007 8.6326ZM16.4007 9.69943L17.8059 11.0883L18.8603 10.0215L17.4551 8.6326L16.4007 9.69943ZM3.26117 14.5599C4.62707 16.7732 7.09169 18.2493 9.90195 18.2493V16.7493C7.62789 16.7493 5.63886 15.5565 4.53766 13.7721L3.26117 14.5599Z" fill="#667085"/>
</svg>