<svg xmlns="http://www.w3.org/2000/svg" width="20" height="20" viewBox="0 0 20 20" fill="none">
  <circle cx="10" cy="10" r="2.5" stroke="#667085" stroke-width="1.5"/>
  <path d="M11.4715 1.79288C11.1653 1.66602 10.777 1.66602 10.0004 1.66602C9.22383 1.66602 8.83554 1.66602 8.52926 1.79288C8.12088 1.96204 7.79642 2.2865 7.62726 2.69488C7.55005 2.8813 7.51983 3.0981 7.508 3.41434C7.49062 3.87908 7.25229 4.30926 6.84953 4.54179C6.44677 4.77432 5.95506 4.76563 5.5439 4.54831C5.26411 4.40043 5.06124 4.3182 4.86119 4.29186C4.42294 4.23417 3.97972 4.35293 3.62904 4.62202C3.36603 4.82383 3.17188 5.1601 2.7836 5.83263C2.39532 6.50515 2.20117 6.84142 2.1579 7.1701C2.10021 7.60835 2.21896 8.05157 2.48805 8.40225C2.61088 8.56231 2.78349 8.69687 3.0514 8.8652C3.44524 9.11267 3.69865 9.53423 3.69862 9.99937C3.6986 10.4645 3.4452 10.886 3.05139 11.1334C2.78345 11.3017 2.61081 11.4363 2.48797 11.5964C2.21888 11.9471 2.10012 12.3903 2.15782 12.8285C2.20109 13.1572 2.39523 13.4935 2.78352 14.166C3.1718 14.8385 3.36595 15.1748 3.62896 15.3766C3.97964 15.6457 4.42286 15.7645 4.8611 15.7068C5.06115 15.6804 5.26401 15.5982 5.54377 15.4504C5.95497 15.233 6.44671 15.2243 6.84949 15.4569C7.25227 15.6894 7.49062 16.1196 7.508 16.5844C7.51983 16.9006 7.55005 17.1174 7.62726 17.3038C7.79642 17.7122 8.12088 18.0367 8.52926 18.2058C8.83554 18.3327 9.22383 18.3327 10.0004 18.3327C10.777 18.3327 11.1653 18.3327 11.4715 18.2058C11.8799 18.0367 12.2044 17.7122 12.3735 17.3038C12.4508 17.1174 12.481 16.9006 12.4928 16.5843C12.5102 16.1196 12.7485 15.6894 13.1512 15.4569C13.554 15.2243 14.0458 15.233 14.457 15.4503C14.7367 15.5982 14.9396 15.6804 15.1396 15.7067C15.5779 15.7644 16.0211 15.6457 16.3718 15.3766C16.6348 15.1748 16.8289 14.8385 17.2172 14.166C17.6055 13.4934 17.7996 13.1572 17.8429 12.8285C17.9006 12.3902 17.7818 11.947 17.5127 11.5963C17.3899 11.4363 17.2173 11.3017 16.9494 11.1334C16.5555 10.8859 16.3021 10.4644 16.3022 9.99927C16.3022 9.53422 16.5556 9.11275 16.9494 8.86534C17.2173 8.69697 17.39 8.5624 17.5128 8.40231C17.7819 8.05162 17.9007 7.60841 17.843 7.17016C17.7997 6.84148 17.6056 6.50521 17.2173 5.83268C16.829 5.16015 16.6348 4.82389 16.3718 4.62207C16.0212 4.35298 15.5779 4.23422 15.1397 4.29192C14.9396 4.31826 14.7368 4.40048 14.457 4.54835C14.0458 4.76568 13.5541 4.77436 13.1513 4.54182C12.7485 4.30927 12.5102 3.87907 12.4928 3.4143C12.481 3.09808 12.4507 2.88129 12.3735 2.69488C12.2044 2.2865 11.8799 1.96204 11.4715 1.79288Z" stroke="#667085" stroke-width="1.5"/>
</svg>