<svg width="40" height="40" viewBox="0 0 40 40" fill="none" xmlns="http://www.w3.org/2000/svg">
<g id="Linear / Video, Audio, Sound / Camera Add">
<path id="Vector" d="M24.999 21.6641H15" stroke="#1C274C" stroke-width="2.49976" stroke-linecap="round"/>
<path id="Vector_2" d="M20 16.665L20 26.6641" stroke="#1C274C" stroke-width="2.49976" stroke-linecap="round"/>
<path id="Vector_3" d="M16.2967 34.9971H23.7033C28.9045 34.9971 31.5051 34.9971 33.3733 33.7715C34.182 33.241 34.8764 32.5592 35.4168 31.7652C36.665 29.931 36.665 27.3777 36.665 22.271C36.665 17.1644 36.665 14.6111 35.4168 12.7769C34.8764 11.9829 34.182 11.3011 33.3733 10.7706C32.1729 9.98307 30.6701 9.70159 28.3692 9.60098C27.2712 9.60098 26.3258 8.7841 26.1105 7.72701C25.7875 6.14137 24.3695 5 22.7225 5H17.2775C15.6305 5 14.2125 6.14137 13.8895 7.72701C13.6742 8.7841 12.7288 9.60098 11.6308 9.60098C9.32993 9.70159 7.82711 9.98307 6.62671 10.7706C5.81797 11.3011 5.12359 11.9829 4.58321 12.7769C3.33496 14.6111 3.33496 17.1644 3.33496 22.271C3.33496 27.3777 3.33496 29.931 4.58321 31.7652C5.12359 32.5592 5.81797 33.241 6.62671 33.7715C8.49485 34.9971 11.0955 34.9971 16.2967 34.9971Z" stroke="#1C274C" stroke-width="2.49976"/>
<path id="Vector_4" d="M31.6655 16.665H29.999" stroke="#1C274C" stroke-width="2.49976" stroke-linecap="round"/>
</g>
</svg>
