<svg width="20" height="20" viewBox="0 0 20 20" fill="none" xmlns="http://www.w3.org/2000/svg">
<g id="Buildings" clip-path="url(#clip0_1930_15184)">
<path id="Vector" d="M18.7293 16.2498H17.5004V7.49975C17.5004 7.16823 17.3687 6.85029 17.1343 6.61587C16.8999 6.38145 16.5819 6.24975 16.2504 6.24975H12.8129C12.73 6.24975 12.6505 6.28268 12.5919 6.34128C12.5333 6.39989 12.5004 6.47937 12.5004 6.56225V16.2498H11.2504V2.53179C11.2525 2.33708 11.2102 2.14446 11.1268 1.9685C11.0435 1.79254 10.9211 1.63786 10.7691 1.51616C10.562 1.35463 10.3091 1.26248 10.0466 1.2528C9.78407 1.24312 9.52516 1.31641 9.30665 1.46225L3.05665 5.62475C2.88519 5.73915 2.74469 5.89416 2.64764 6.07599C2.55059 6.25782 2.50001 6.46083 2.5004 6.66694V16.2498H1.27149C1.10998 16.2474 0.953557 16.3062 0.833688 16.4145C0.71382 16.5228 0.639399 16.6724 0.625397 16.8333C0.61972 16.9188 0.631682 17.0046 0.66054 17.0853C0.689397 17.1659 0.734534 17.2398 0.793146 17.3023C0.851758 17.3648 0.922594 17.4146 1.00125 17.4485C1.07991 17.4825 1.16472 17.4999 1.2504 17.4998H18.7504C18.8361 17.4999 18.9209 17.4825 18.9995 17.4485C19.0782 17.4146 19.149 17.3648 19.2076 17.3023C19.2663 17.2398 19.3114 17.1659 19.3403 17.0853C19.3691 17.0046 19.3811 16.9188 19.3754 16.8333C19.3614 16.6724 19.287 16.5228 19.1671 16.4145C19.0472 16.3062 18.8908 16.2474 18.7293 16.2498ZM5.9379 14.3748C5.93809 14.4604 5.92065 14.5452 5.88669 14.6239C5.85272 14.7026 5.80295 14.7734 5.74045 14.832C5.67796 14.8906 5.60408 14.9358 5.5234 14.9646C5.44273 14.9935 5.35698 15.0054 5.27149 14.9998C5.11043 14.9857 4.96067 14.9112 4.85238 14.7912C4.74409 14.6711 4.68531 14.5145 4.6879 14.3529V13.1458C4.6857 12.9844 4.74462 12.8281 4.85286 12.7082C4.9611 12.5884 5.11064 12.5139 5.27149 12.4998C5.35698 12.4941 5.44273 12.506 5.5234 12.5349C5.60408 12.5638 5.67796 12.6089 5.74045 12.6675C5.80295 12.7261 5.85272 12.797 5.88669 12.8756C5.92065 12.9543 5.93809 13.0391 5.9379 13.1248V14.3748ZM5.9379 9.99975C5.93809 10.0854 5.92065 10.1702 5.88669 10.2489C5.85272 10.3276 5.80295 10.3984 5.74045 10.457C5.67796 10.5156 5.60408 10.5608 5.5234 10.5896C5.44273 10.6185 5.35698 10.6304 5.27149 10.6248C5.1105 10.6106 4.96085 10.536 4.85259 10.416C4.74434 10.296 4.6855 10.1395 4.6879 9.97788V8.77085C4.6857 8.60939 4.74462 8.45307 4.85286 8.33324C4.9611 8.21341 5.11064 8.13894 5.27149 8.12475C5.35698 8.11908 5.44273 8.13104 5.5234 8.1599C5.60408 8.18876 5.67796 8.23389 5.74045 8.2925C5.80295 8.35112 5.85272 8.42195 5.88669 8.50061C5.92065 8.57927 5.93809 8.66408 5.9379 8.74975V9.99975ZM9.0629 14.3748C9.06308 14.4604 9.04566 14.5452 9.01169 14.6239C8.97772 14.7026 8.92795 14.7734 8.86545 14.832C8.80295 14.8906 8.72908 14.9358 8.6484 14.9646C8.56773 14.9935 8.48198 15.0054 8.39649 14.9998C8.23571 14.9858 8.08617 14.9115 7.97792 14.7917C7.86966 14.672 7.81071 14.5158 7.8129 14.3544V13.1458C7.81089 12.9845 7.86991 12.8284 7.97813 12.7087C8.08635 12.5891 8.23578 12.5147 8.39649 12.5005C8.48198 12.4949 8.56773 12.5068 8.6484 12.5357C8.72908 12.5645 8.80295 12.6097 8.86545 12.6683C8.92795 12.7269 8.97772 12.7977 9.01169 12.8764C9.04566 12.9551 9.06308 13.0399 9.0629 13.1255V14.3748ZM9.0629 9.99975C9.06308 10.0854 9.04566 10.1702 9.01169 10.2489C8.97772 10.3276 8.92795 10.3984 8.86545 10.457C8.80295 10.5156 8.72908 10.5608 8.6484 10.5896C8.56773 10.6185 8.48198 10.6304 8.39649 10.6248C8.23578 10.6106 8.08635 10.5362 7.97813 10.4166C7.86991 10.2969 7.81089 10.1408 7.8129 9.97944V8.77085C7.81089 8.60952 7.86991 8.45339 7.97813 8.33373C8.08635 8.21407 8.23578 8.13971 8.39649 8.12554C8.48198 8.11986 8.56773 8.13182 8.6484 8.16068C8.72908 8.18954 8.80295 8.23467 8.86545 8.29329C8.92795 8.3519 8.97772 8.42273 9.01169 8.50139C9.04566 8.58005 9.06308 8.66486 9.0629 8.75054V9.99975Z" fill="white"/>
</g>
<defs>
<clipPath id="clip0_1930_15184">
<rect width="20" height="20" fill="white"/>
</clipPath>
</defs>
</svg>
