<svg width="20" height="20" viewBox="0 0 20 20" fill="none" xmlns="http://www.w3.org/2000/svg">
<g id="Linear / Notifications / Bell ">
<path id="Vector" d="M15.4837 8.13902V7.56653C15.4837 4.42319 13.0285 1.875 10 1.875C6.97145 1.875 4.51633 4.42319 4.51633 7.56653V8.13902C4.51633 8.82606 4.32039 9.49773 3.95321 10.0694L3.05342 11.4702C2.23154 12.7498 2.85898 14.489 4.28842 14.8936C8.02785 15.9521 11.9721 15.9521 15.7116 14.8936C17.141 14.489 17.7685 12.7498 16.9466 11.4702L16.0468 10.0694C15.6796 9.49773 15.4837 8.82606 15.4837 8.13902Z" stroke="#667085" stroke-width="1.21875"/>
<path id="Vector_2" d="M6.34375 15.6875C6.87596 17.1076 8.312 18.125 10 18.125C11.688 18.125 13.124 17.1076 13.6562 15.6875" stroke="#667085" stroke-width="1.21875" stroke-linecap="round"/>
</g>
</svg>
