<svg width="20" height="21" viewBox="0 0 20 21" fill="none" xmlns="http://www.w3.org/2000/svg">
<g id="Bold / Security / Eye">
<g id="Vector">
<path d="M8.12496 10.5314C8.12496 9.49588 8.96443 8.65641 9.99996 8.65641C11.0355 8.65641 11.875 9.49588 11.875 10.5314C11.875 11.5669 11.0355 12.4064 9.99996 12.4064C8.96443 12.4064 8.12496 11.5669 8.12496 10.5314Z" fill="#3887D9"/>
<path fill-rule="evenodd" clip-rule="evenodd" d="M1.66663 10.5314C1.66663 11.8976 2.02076 12.3576 2.72904 13.2778C4.14326 15.1151 6.51505 17.1981 9.99996 17.1981C13.4849 17.1981 15.8567 15.1151 17.2709 13.2778C17.9792 12.3576 18.3333 11.8976 18.3333 10.5314C18.3333 9.16527 17.9792 8.70518 17.2709 7.78502C15.8567 5.94771 13.4849 3.86475 9.99996 3.86475C6.51505 3.86475 4.14326 5.94771 2.72904 7.78502C2.02076 8.70518 1.66663 9.16527 1.66663 10.5314ZM9.99996 7.40641C8.27407 7.40641 6.87496 8.80552 6.87496 10.5314C6.87496 12.2573 8.27407 13.6564 9.99996 13.6564C11.7259 13.6564 13.125 12.2573 13.125 10.5314C13.125 8.80552 11.7259 7.40641 9.99996 7.40641Z" fill="#3887D9"/>
</g>
</g>
</svg>
