<svg width="16" height="16" viewBox="0 0 16 16" fill="none" xmlns="http://www.w3.org/2000/svg">
<g id="Linear / Electronic, Devices / Diskette" clip-path="url(#clip0_6762_3467)">
<path id="Vector" d="M2.30968 13.6891C3.286 14.6654 4.85734 14.6654 8.00004 14.6654C11.1427 14.6654 12.7141 14.6654 13.6904 13.6891C14.6667 12.7127 14.6667 11.1414 14.6667 7.9987C14.6667 7.77106 14.6667 7.65724 14.6566 7.5415C14.6095 7.00196 14.3907 6.47374 14.0425 6.05892C13.9678 5.96994 13.8853 5.88748 13.7204 5.72255L10.2762 2.27832C10.1113 2.1134 10.0288 2.03093 9.93982 1.95624C9.525 1.60803 8.99678 1.38924 8.45724 1.34213C8.3415 1.33203 8.22768 1.33203 8.00004 1.33203C4.85734 1.33203 3.286 1.33203 2.30968 2.30834C1.33337 3.28465 1.33337 4.856 1.33337 7.9987C1.33337 11.1414 1.33337 12.7127 2.30968 13.6891Z" stroke="white" stroke-width="1.5"/>
<path id="Vector_2" d="M11.3333 14.6654V13.9987C11.3333 12.7416 11.3333 12.1131 10.9428 11.7226C10.5522 11.332 9.9237 11.332 8.66663 11.332H7.33329C6.07621 11.332 5.44767 11.332 5.05715 11.7226C4.66663 12.1131 4.66663 12.7416 4.66663 13.9987V14.6654" stroke="white" stroke-width="1.5"/>
<path id="Vector_3" d="M4.66663 5.33203H8.66663" stroke="white" stroke-width="1.5" stroke-linecap="round"/>
</g>
<defs>
<clipPath id="clip0_6762_3467">
<rect width="16" height="16" fill="white"/>
</clipPath>
</defs>
</svg>
