<svg width="167" height="28" viewBox="0 0 167 28" fill="none" xmlns="http://www.w3.org/2000/svg">
<path d="M26.04 4.344L22.568 24H17.78L19.88 12.212L13.384 24H9.52L7.168 12.156L5.096 24H0.308L3.78 4.344H9.436L12.572 17.952L20.412 4.344H26.04ZM41.6631 20.528H34.3271L32.5351 24H27.5231L38.1071 4.344H43.6511L47.2911 24H42.2231L41.6631 20.528ZM41.1031 16.888L39.9551 9.608L36.2031 16.888H41.1031ZM63.0917 4.344C64.9023 4.344 66.461 4.67067 67.7677 5.324C69.093 5.95867 70.101 6.864 70.7917 8.04C71.501 9.19733 71.8557 10.56 71.8557 12.128C71.8557 12.6693 71.7903 13.3507 71.6597 14.172C71.3237 16.0947 70.5957 17.8027 69.4757 19.296C68.3743 20.7893 66.965 21.9467 65.2477 22.768C63.549 23.5893 61.673 24 59.6197 24H52.2557L55.7277 4.344H63.0917ZM60.0397 19.912C61.8503 19.912 63.353 19.408 64.5477 18.4C65.7423 17.392 66.489 15.9827 66.7877 14.172C66.881 13.612 66.9277 13.1453 66.9277 12.772C66.9277 11.3907 66.5077 10.3267 65.6677 9.58C64.8277 8.81467 63.633 8.432 62.0837 8.432H59.7877L57.7717 19.912H60.0397ZM88.2514 20.528H80.9154L79.1234 24H74.1114L84.6954 4.344H90.2394L93.8794 24H88.8114L88.2514 20.528ZM87.6914 16.888L86.5434 9.608L82.7914 16.888H87.6914ZM110.352 4.344C112.387 4.344 113.936 4.81067 115 5.744C116.064 6.65867 116.596 7.85333 116.596 9.328C116.596 9.75733 116.559 10.1587 116.484 10.532C116.26 11.8387 115.691 13.0053 114.776 14.032C113.861 15.0587 112.639 15.7867 111.108 16.216L114.272 24H108.868L106.096 16.58H104.948L103.632 24H98.8439L102.316 4.344H110.352ZM111.584 10.728C111.621 10.4293 111.64 10.2333 111.64 10.14C111.64 9.54267 111.444 9.08533 111.052 8.768C110.679 8.432 110.119 8.264 109.372 8.264H106.404L105.536 13.192H108.504C109.381 13.192 110.072 12.9773 110.576 12.548C111.099 12.1187 111.435 11.512 111.584 10.728ZM128.17 4.344L124.698 24H119.91L123.382 4.344H128.17ZM142.083 13.976L148.215 24H142.363L137.295 15.32L135.755 24H130.967L134.439 4.344H139.227L137.715 12.968L145.807 4.344H151.407L142.083 13.976Z" fill="#101828"/>
<path d="M161.52 24.224C160.773 24.224 160.176 24.028 159.728 23.636C159.299 23.2253 159.084 22.712 159.084 22.096C159.084 21.2373 159.401 20.5093 160.036 19.912C160.689 19.3147 161.492 19.016 162.444 19.016C163.172 19.016 163.751 19.2213 164.18 19.632C164.609 20.024 164.824 20.5373 164.824 21.172C164.824 22.012 164.497 22.7307 163.844 23.328C163.209 23.9253 162.435 24.224 161.52 24.224Z" fill="#3887D9"/>
</svg>
